<?xml version="1.0" encoding="UTF-8" standalone="no"?>
<!-- Created with Inkscape (http://www.inkscape.org/) -->

<svg
   xmlns:dc="http://purl.org/dc/elements/1.1/"
   xmlns:cc="http://creativecommons.org/ns#"
   xmlns:rdf="http://www.w3.org/1999/02/22-rdf-syntax-ns#"
   xmlns:svg="http://www.w3.org/2000/svg"
   xmlns="http://www.w3.org/2000/svg"
   xmlns:sodipodi="http://sodipodi.sourceforge.net/DTD/sodipodi-0.dtd"
   xmlns:inkscape="http://www.inkscape.org/namespaces/inkscape"
   id="svg2"
   version="1.1"
   inkscape:version="0.91 r13725"
   xml:space="preserve"
   width="80"
   height="80"
   viewBox="0 0 80 80"
   sodipodi:docname="Extension.svg"><metadata
     id="metadata8"><rdf:RDF><cc:Work
         rdf:about=""><dc:format>image/svg+xml</dc:format><dc:type
           rdf:resource="http://purl.org/dc/dcmitype/StillImage" /><dc:title></dc:title></cc:Work></rdf:RDF></metadata><defs
     id="defs6" /><sodipodi:namedview
     pagecolor="#ffffff"
     bordercolor="#666666"
     borderopacity="1"
     objecttolerance="10"
     gridtolerance="10"
     guidetolerance="10"
     inkscape:pageopacity="0"
     inkscape:pageshadow="2"
     inkscape:window-width="3810"
     inkscape:window-height="2131"
     id="namedview4"
     showgrid="false"
     inkscape:snap-page="true"
     inkscape:zoom="5.9"
     inkscape:cx="19.288823"
     inkscape:cy="47.257551"
     inkscape:window-x="1600"
     inkscape:window-y="0"
     inkscape:window-maximized="1"
     inkscape:current-layer="g10" /><g
     id="g10"
     inkscape:groupmode="layer"
     inkscape:label="ink_ext_XXXXXX"
     transform="matrix(1.25,0,0,-1.25,0,80)"><rect
       style="opacity:0.98999999;fill:#c0392b;fill-opacity:1;stroke:none;stroke-width:2.07999992;stroke-miterlimit:4;stroke-dasharray:none;stroke-opacity:1"
       id="rect4157"
       width="64"
       height="64"
       x="0"
       y="-64"
       transform="scale(1,-1)" /><path
       inkscape:connector-curvature="0"
       id="path16"
       style="fill:#000000;fill-opacity:0.41764706;fill-rule:nonzero;stroke:none"
       d="m 32,8.08633 c -12.1504,0 -22,9.84997 -22,21.99997 0,12.1504 9.8496,22 22,22 12.1504,0 22,-9.8496 22,-22 C 54,17.9363 44.1504,8.08633 32,8.08633 M 15.8637,33.9289 c 0.1172,0 0.1812,-0.0754 0.1609,-0.3191 -0.0687,-0.8239 -0.5148,-4.5649 0.8238,-4.7364 1.3383,-0.1714 2.2305,-0.0343 3.3289,-0.755 1.0981,-0.7207 3.1575,-0.7891 4.6332,-3.1231 1.4758,-2.3336 3.1918,-2.6082 4.8391,-2.9859 1.6473,-0.3774 1.4758,-1.3039 0.6176,-2.5395 -0.8578,-1.2355 -0.3774,-2.5054 -3.2602,-3.4664 -2.8828,-0.9609 -3.0886,-3.3633 -2.9859,-3.8094 0.0211,-0.091 -0.0176,-0.307 -0.091,-0.591 2.473,-1.084 5.2015,-1.68943 8.0699,-1.68943 5.6969,0 10.8461,2.37733 14.518,6.18793 -0.4809,1.4879 -0.9614,3.1871 -0.9785,4.089 -0.0344,1.8188 0.4804,1.9563 -0.1715,3.1574 -0.2344,0.4317 -0.5575,0.5575 -0.9961,0.5575 -0.3067,0 -0.6699,-0.0614 -1.0992,-0.1231 -0.4289,-0.0613 -0.9239,-0.123 -1.4938,-0.123 -0.3133,0 -0.6496,0.0187 -1.0098,0.066 -2.6082,0.3434 -2.1964,1.9906 -4.0156,4.2559 -1.8187,2.2648 1.682,4.1183 2.643,6.4519 0.5191,1.2609 1.9793,1.5801 3.359,1.5801 1.1738,0 2.2894,-0.2313 2.7156,-0.3102 0.1004,-0.0187 0.1859,-0.0281 0.2609,-0.0281 0.618,4e-4 0.5344,0.6305 2.2785,1.9156 1.9563,1.4414 -0.9609,1.4758 -1.7503,2.025 -0.2379,0.1657 -0.395,0.2375 -0.5137,0.2375 -0.2758,0 -0.3485,-0.3863 -0.7563,-0.8898 -0.1246,-0.1539 -0.2632,-0.2168 -0.4121,-0.2168 -0.5476,0 -1.232,0.8543 -1.8527,1.1777 -0.0965,0.0504 -0.1832,0.0742 -0.2637,0.0742 -0.5789,0 -0.8105,-1.2277 -1.6238,-2.6136 -0.3988,-0.6797 -0.7277,-0.9328 -1.0387,-0.9328 -0.4113,0 -0.7918,0.4441 -1.2609,0.9328 -0.8235,0.8578 -0.309,1.6129 0.5492,1.9562 0.8578,0.343 0.9266,0.4805 0.309,1.1668 -0.618,0.6863 -0.8926,0.4117 -0.2746,0.961 0.6176,0.5492 0.9953,0.4804 2.3336,1.3042 1.0015,0.6165 0.389,1.1942 -0.3567,1.1942 -0.2508,0 -0.5168,-0.0652 -0.7414,-0.2168 -0.1199,-0.0809 -0.2441,-0.118 -0.3695,-0.118 -0.8109,0 -1.6875,1.5426 -1.8957,2.8692 -0.2402,1.532 0.4805,1.0418 1.3043,1.591 0.1961,0.1308 0.0816,0.4414 -0.1996,0.8351 -2.2371,0.8575 -4.6621,1.3317 -7.1969,1.3317 -2.5043,0 -4.9016,-0.4621 -7.116,-1.3 -0.375,-0.5188 -0.4711,-0.9403 0.2082,-0.9403 0.0402,0 0.084,0.0016 0.1301,0.0047 1.0613,0.0707 1.5843,0.2235 1.9414,0.2235 0.3351,0 0.5234,-0.1352 0.8726,-0.6008 0.636,-0.8477 0.4438,-2.4969 -0.5054,-2.4969 -0.127,0 -0.2672,0.0297 -0.4211,0.0945 -0.8614,0.3625 -2.0965,0.8899 -2.9946,0.8899 -0.4617,0 -0.8343,-0.1395 -1.0207,-0.5125 -0.3519,-0.7039 -0.1539,-1.0695 0.3137,-1.0695 0.2617,0 0.6086,0.1144 0.9902,0.3488 0.3754,0.2301 0.725,0.3402 1.0293,0.3402 0.5586,0 0.9657,-0.3722 1.0989,-1.0609 0.1886,-0.9766 0.1464,-2.791 -0.7637,-2.791 -0.0816,0 -0.1699,0.0144 -0.266,0.0453 -0.2578,0.0836 -0.477,0.1199 -0.6547,0.1199 -0.627,0 -0.7383,-0.4547 -0.2031,-0.9094 0.4679,-0.398 0.2656,-0.684 -0.2485,-0.684 -0.2394,0 -0.5465,0.0621 -0.8843,0.2039 -0.1493,0.0625 -0.2766,0.0895 -0.3899,0.0895 -0.3367,0 -0.5449,-0.2375 -0.8121,-0.475 -0.2672,-0.2379 -0.5934,-0.475 -1.1656,-0.475 -0.0336,0 -0.0684,8e-4 -0.1035,0.0023 -0.0305,0.0016 -0.0606,0.0024 -0.0899,0.0024 -1.3558,0 -1.4637,-1.5246 -1.9004,-2.0957 -0.4465,-0.5836 -0.5148,-2.4711 -0.6179,-2.9172 -0.0473,-0.2063 -0.168,-0.3902 -0.3079,-0.3902 -0.1632,0 -0.3519,0.2504 -0.4812,1.0078 -0.2406,1.4074 0.0684,2.025 -1.2016,2.1277 -0.0238,0.002 -0.0476,0.0031 -0.0718,0.0031 -1.2454,0 -2.4551,-2.5785 -1.8157,-3.1386 0.1473,-0.1289 0.3071,-0.1727 0.4649,-0.1727 0.1672,0 0.3324,0.0488 0.4797,0.0981 0.1468,0.0488 0.2757,0.0976 0.3703,0.0976 m -1.811,5.3512 c -1.4191,-2.7594 -2.2257,-5.8832 -2.2257,-9.1938 0,-7.4277 4.0386,-13.9261 10.032,-17.4273 l -0.1031,0.4617 c 0,0 -1.8532,2.4711 -2.0246,4.1527 -0.1715,1.6817 -1.4071,2.6082 -2.8489,5.7313 -1.4414,3.123 -0.4804,3.4664 -0.2398,3.7066 0.2398,0.2403 -1.6133,1.2356 -1.5446,3.6379 0.0688,2.4024 -1.9562,1.8531 -1.5789,4.393 0.3239,2.1773 0.7438,3.6941 0.5336,4.5379" /><g
       transform="scale(1,-1)"
       style="font-style:normal;font-variant:normal;font-weight:normal;font-stretch:normal;font-size:20px;line-height:1000%;font-family:'Noto Sans';-inkscape-font-specification:'Noto Sans';letter-spacing:0px;word-spacing:0px;fill:#000000;fill-opacity:1;stroke:none;stroke-width:1px;stroke-linecap:butt;stroke-linejoin:miter;stroke-opacity:1"
       id="text4215"><path
         d="m 6.3963313,-15.267926 q 0,-0.644531 0.3125,-0.986328 0.3222656,-0.351563 0.9082031,-0.351563 0.5957032,0 0.9277344,0.351563 0.3320313,0.341797 0.3320313,0.986328 0,0.634765 -0.3320313,1.005859 -0.3320312,0.361328 -0.9277344,0.361328 -0.5761718,0 -0.8984375,-0.361328 -0.3222656,-0.361328 -0.3222656,-1.005859 z m 0,-8.554688 q 0,-0.644531 0.3027344,-0.996093 0.3125,-0.361329 0.9179687,-0.361329 0.6152344,0 0.9375,0.351563 0.3222657,0.351562 0.3222657,1.005859 0,0.625 -0.3320313,0.996094 -0.3320312,0.361328 -0.9277344,0.361328 -0.5761718,0 -0.8984375,-0.361328 -0.3222656,-0.361328 -0.3222656,-0.996094 z"
         style="font-style:normal;font-variant:normal;font-weight:normal;font-stretch:normal;font-size:20px;font-family:'Noto Sans';-inkscape-font-specification:'Noto Sans';fill:#ffffff;fill-opacity:1"
         id="path4239" /><path
         d="m 17.548675,-28.461286 -5.3125,14.277344 -1.728516,0 5.322266,-14.277344 1.71875,0 z"
         style="font-style:normal;font-variant:normal;font-weight:normal;font-stretch:normal;font-size:20px;font-family:'Noto Sans';-inkscape-font-specification:'Noto Sans';fill:#ffffff;fill-opacity:1"
         id="path4241" /><path
         d="m 21.389614,-28.461286 -5.3125,14.277344 -1.728516,0 5.322266,-14.277344 1.71875,0 z"
         style="font-style:normal;font-variant:normal;font-weight:normal;font-stretch:normal;font-size:20px;font-family:'Noto Sans';-inkscape-font-specification:'Noto Sans';fill:#ffffff;fill-opacity:1"
         id="path4243" /><path
         d="m 25.852504,-19.662457 -3.701172,-5.244141 2.001954,0 2.763671,4.042969 2.734375,-4.042969 1.982422,0 -3.701172,5.244141 3.90625,5.478515 -2.001953,0 -2.919922,-4.277344 -2.958984,4.277344 -1.982422,0 3.876953,-5.478515 z"
         style="font-style:normal;font-variant:normal;font-weight:normal;font-stretch:normal;font-size:20px;font-family:'Noto Sans';-inkscape-font-specification:'Noto Sans';fill:#ffffff;fill-opacity:1"
         id="path4245" /><path
         d="m 39.436489,-28.461286 -5.3125,14.277344 -1.728516,0 5.322266,-14.277344 1.71875,0 z"
         style="font-style:normal;font-variant:normal;font-weight:normal;font-stretch:normal;font-size:20px;font-family:'Noto Sans';-inkscape-font-specification:'Noto Sans';fill:#ffffff;fill-opacity:1"
         id="path4247" /><path
         d="m 39.680629,-24.906598 1.884766,0 2.314453,6.103516 q 0.732422,1.992187 0.898438,2.919921 l 0.07813,0 q 0.08789,-0.361328 0.40039,-1.347656 0.3125,-0.996094 0.527344,-1.591797 l 2.177734,-6.083984 1.894532,0 -4.619141,12.207031 q -0.673828,1.777344 -1.601563,2.548828 -0.927734,0.7714847 -2.294921,0.7714847 -0.732422,0 -1.455079,-0.1660157 l 0,-1.396484 q 0.488282,0.117187 1.171875,0.117187 0.839844,0 1.425782,-0.46875 0.585937,-0.458984 0.957031,-1.425781 l 0.556641,-1.425781 -4.316407,-10.761719 z"
         style="font-style:normal;font-variant:normal;font-weight:normal;font-stretch:normal;font-size:20px;font-family:'Noto Sans';-inkscape-font-specification:'Noto Sans';fill:#ffffff;fill-opacity:1"
         id="path4249" /><path
         d="m 57.092739,-28.461286 -5.3125,14.277344 -1.728516,0 5.322266,-14.277344 1.71875,0 z"
         style="font-style:normal;font-variant:normal;font-weight:normal;font-stretch:normal;font-size:20px;font-family:'Noto Sans';-inkscape-font-specification:'Noto Sans';fill:#ffffff;fill-opacity:1"
         id="path4251" /></g></g></svg>